<svg xmlns="http://www.w3.org/2000/svg" xmlns:xlink="http://www.w3.org/1999/xlink" xml:space="preserve" width="2560" height="1440"><defs><linearGradient id="a" x1="-320" x2="128" y1="-554.3" y2="221.7" gradientUnits="userSpaceOnUse"><stop offset="0%" stop-color="#3e5993"/><stop offset="25%" stop-color="#4564a5"/><stop offset="100%" stop-color="#4d6fb7"/></linearGradient><linearGradient id="b" x1="-320" x2="128" y1="-554.3" y2="221.7" gradientUnits="userSpaceOnUse"><stop offset="0%" stop-color="#6d9bbc"/><stop offset="25%" stop-color="#72a9cf"/><stop offset="100%" stop-color="#77b6e1"/></linearGradient><linearGradient xlink:href="#a" id="k" x1="-320" x2="128" y1="-554.3" y2="221.7" gradientUnits="userSpaceOnUse"/><linearGradient xlink:href="#b" id="m" x1="-320" x2="128" y1="-554.3" y2="221.7" gradientUnits="userSpaceOnUse"/><linearGradient xlink:href="#a" id="n" x1="-320" x2="128" y1="-554.3" y2="221.7" gradientUnits="userSpaceOnUse"/><linearGradient xlink:href="#a" id="p" x1="-320" x2="128" y1="-554.3" y2="221.7" gradientUnits="userSpaceOnUse"/><linearGradient xlink:href="#b" id="q" x1="-320" x2="128" y1="-554.3" y2="221.7" gradientUnits="userSpaceOnUse"/><linearGradient xlink:href="#b" id="o" x1="-320" x2="128" y1="-554.3" y2="221.7" gradientUnits="userSpaceOnUse"/><linearGradient xlink:href="#a" id="l" x1="-320" x2="128" y1="-554.3" y2="221.7" gradientUnits="userSpaceOnUse"/><linearGradient xlink:href="#b" id="r" x1="-320" x2="128" y1="-554.3" y2="221.7" gradientUnits="userSpaceOnUse"/><linearGradient xlink:href="#a" id="c" x1="-320" x2="128" y1="-554.3" y2="221.7" gradientUnits="userSpaceOnUse"/><linearGradient xlink:href="#a" id="d" x1="-320" x2="128" y1="-554.3" y2="221.7" gradientUnits="userSpaceOnUse"/><linearGradient xlink:href="#b" id="e" x1="-320" x2="128" y1="-554.3" y2="221.7" gradientUnits="userSpaceOnUse"/><linearGradient xlink:href="#a" id="f" x1="-320" x2="128" y1="-554.3" y2="221.7" gradientUnits="userSpaceOnUse"/><linearGradient xlink:href="#a" id="g" x1="-320" x2="128" y1="-554.3" y2="221.7" gradientUnits="userSpaceOnUse"/><linearGradient xlink:href="#a" id="h" x1="-320" x2="128" y1="-554.3" y2="221.7" gradientUnits="userSpaceOnUse"/><linearGradient xlink:href="#a" id="i" x1="-320" x2="128" y1="-554.3" y2="221.7" gradientUnits="userSpaceOnUse"/><linearGradient xlink:href="#b" id="j" x1="-320" x2="128" y1="-554.3" y2="221.7" gradientUnits="userSpaceOnUse"/></defs><g style="stroke:#fff;stroke-width:36.8251;stroke-linecap:round;stroke-linejoin:round;stroke-dasharray:none;stroke-opacity:1"><g style="clip-rule:evenodd;fill-rule:evenodd;stroke:#fff;stroke-width:36.8251;stroke-linecap:round;stroke-linejoin:round;stroke-miterlimit:1.41421;stroke-dasharray:none;stroke-opacity:1"><path d="M0-279.6c-121.2 0-231.4 14.6-313 38.4v202.9C-231.3-14.6-121.1 0 0 0c138.8 0 263-19 346.4-49.2v-181.2C263-260.4 138.8-279.6 0-279.6" style="fill:#a52b00;fill-rule:nonzero;stroke:#fff;stroke-width:36.8251;stroke-linecap:round;stroke-linejoin:round;stroke-dasharray:none;stroke-opacity:1" transform="translate(613.2 767)scale(.5431)"/></g><g style="clip-rule:evenodd;fill-rule:evenodd;stroke:#fff;stroke-width:36.8251;stroke-linecap:round;stroke-linejoin:round;stroke-miterlimit:1.41421;stroke-dasharray:none;stroke-opacity:1"><path d="m0-53.3-14.2-29.5.1-3.3c0-33.4-34.7-64.2-93-88.8V2.6a244 244 0 0 0 65-38c-4.6 18.6-20.5 56.5-33.2 83-20.8 38.2-28.4 71.3-27.4 73 .6 1 7.7-10 18.2-27.8C-60 58-13.8-8.4-4.5-25.2 5.8-44.6 0-53.4 0-53.4" style="fill:#a52b00;fill-rule:nonzero;stroke:#fff;stroke-width:36.8251;stroke-linecap:round;stroke-linejoin:round;stroke-dasharray:none;stroke-opacity:1" transform="translate(869.2 733.7)scale(.5431)"/></g><g style="clip-rule:evenodd;fill-rule:evenodd;stroke:#fff;stroke-width:36.8251;stroke-linecap:round;stroke-linejoin:round;stroke-miterlimit:1.41421;stroke-dasharray:none;stroke-opacity:1"><path d="M0-100q0 9.7 3.8 19l-8.5 15.2S-11.5-57 .5-38.3C11-22 64 42.5 92 76.3c12 17.3 20.2 28 20.9 26.9 1.1-1.6-7.5-34.1-31.4-71.2a678 678 0 0 1-32.4-65.7 377 377 0 0 0 86.1 38v-208.5C51.8-177.6 0-140.7 0-100" style="fill:#a52b00;fill-rule:nonzero;stroke:#fff;stroke-width:36.8251;stroke-linecap:round;stroke-linejoin:round;stroke-dasharray:none;stroke-opacity:1" transform="translate(369.7 742.3)scale(.5431)"/></g><g style="clip-rule:evenodd;fill-rule:evenodd;stroke:#fff;stroke-width:36.8251;stroke-linecap:round;stroke-linejoin:round;stroke-miterlimit:1.41421;stroke-dasharray:none;stroke-opacity:1"><path d="m0 240.3-93.4-68.8-2.7-9.1 30.7-44.5a17 17 0 0 0 1.7-15.5c-2-5.2-6.5-8.8-11.7-9.7l-52-8.9-6.1-12.1 21.8-49.9a17 17 0 0 0-1.2-15.6 15 15 0 0 0-13.4-7.1L-179 1q-4-5.4-8.3-10.6l12.1-53.4c1.3-5.5-.3-11.2-4-15.1a15 15 0 0 0-14.5-4.3L-245-69.8l-10.1-8.7 1.8-54.9c.2-5.5-2.3-10.8-6.8-13.9s-10-3.6-15-1.3l-47.8 22.8-11.6-6.5-8.5-54.1a16 16 0 0 0-9.3-12.3 15 15 0 0 0-15 1.8l-42.6 32-12.7-4-18.4-51.3a15 15 0 0 0-25.7-5.3l-35.9 40.1q-6.4-.8-13-1.3l-27.7-46.7a15 15 0 0 0-13.1-7.7c-5.4 0-10.4 3-13.1 7.7l-27.8 46.7q-6.5.5-13 1.3l-36-40.2a15 15 0 0 0-25.6 5.4l-18.4 51.3-12.7 4-42.7-32c-4.3-3.3-10-4-14.9-1.8a16 16 0 0 0-9.3 12.3l-8.5 54-11.6 6.6-47.9-22.8a15 15 0 0 0-15 1.3c-4.4 3-7 8.4-6.8 14l1.9 54.8-10.1 8.7-51.3-12.6a15 15 0 0 0-14.4 4.3c-3.8 4-5.4 9.6-4.2 15l12.1 53.5L-934 1l-52.6-2a15 15 0 0 0-13.4 7.2c-3 4.6-3.4 10.5-1.2 15.6l21.8 49.9-6.2 12.1-52 8.9c-5.2.8-9.6 4.5-11.7 9.7s-1.4 11 1.7 15.5l30.7 44.5-.7 2.3-86.7 92.2s-13.3 10.4 6 35c17.1 21.5 104.8 107.2 151 152 19.6 22.8 33 37 34.4 35.7 2.2-2-9.4-43.4-47.9-92-29.7-43.6-68.2-110.7-59.2-118.5 0 0 10.3-13 31-22.4.7.6-.8-.6 0 0 0 0 435 200.7 838.7 3.4 46.1-8.3 74 16.4 74 16.4 9.7 5.6-15.2 74.6-35.7 120.3-28 51.8-32 92.3-29.6 93.7 1.4.9 11.6-14.5 26-39.1C-79.7 391.7-12.3 296.8 0 273.8c14-26.1 0-33.5 0-33.5" style="fill:#f74c00;fill-rule:nonzero;stroke:#fff;stroke-width:36.8251;stroke-linecap:round;stroke-linejoin:round;stroke-dasharray:none;stroke-opacity:1" transform="translate(914 574.2)scale(.5431)"/></g><g style="clip-rule:evenodd;fill-rule:evenodd;stroke:#fff;stroke-width:39.6277;stroke-linecap:round;stroke-linejoin:round;stroke-miterlimit:1.41421;stroke-dasharray:none;stroke-opacity:1"><g style="stroke:#fff;stroke-width:39.6277;stroke-linecap:round;stroke-linejoin:round;stroke-dasharray:none;stroke-opacity:1"><path d="m0 172 2.5-2.3-137-10C-18 0 69.6 126.8 79.4 140.5V172z" style="fill-rule:nonzero;stroke:#fff;stroke-width:39.6277;stroke-linecap:round;stroke-linejoin:round;stroke-dasharray:none;stroke-opacity:1" transform="matrix(.3742 0 0 .6807 738.3 677.6)"/></g><g style="stroke:#fff;stroke-width:39.6277;stroke-linecap:round;stroke-linejoin:round;stroke-dasharray:none;stroke-opacity:1"><path d="M0-314s-15.6 62-112.5 127.2l-27.1 6.4s-87.9-160.3-212.4 20.3c0 0 38.8-22.6 142.8 5 0 0-47.8 73.2-144.2 71 0 0 92.4 110.8 233-49.3 0 0 148.5-57.5 160.6-180.6z" style="fill:#f74c00;fill-rule:nonzero;stroke:#fff;stroke-width:39.6277;stroke-linecap:round;stroke-linejoin:round;stroke-dasharray:none;stroke-opacity:1" transform="matrix(.3742 0 0 .6807 820.2 904.8)"/></g></g><g style="clip-rule:evenodd;fill-rule:evenodd;stroke:#fff;stroke-width:29.8911;stroke-linecap:round;stroke-linejoin:round;stroke-miterlimit:1.41421;stroke-dasharray:none;stroke-opacity:1"><path d="M0-92s43.5-47.7 87 0c0 0 34.1 63.4 0 95.2 0 0-56 44.4-87 0 0 0-37.3-35 0-95.3" style="fill-rule:nonzero;stroke:#fff;stroke-width:29.8911;stroke-linecap:round;stroke-linejoin:round;stroke-dasharray:none;stroke-opacity:1" transform="matrix(.5431 0 0 .8243 670 598.5)"/></g><g style="clip-rule:evenodd;fill-rule:evenodd;stroke:#fff;stroke-width:29.8911;stroke-linecap:round;stroke-linejoin:round;stroke-miterlimit:1.41421;stroke-dasharray:none;stroke-opacity:1"><path d="M0 0c0 18.5-11 33.6-24.4 33.6-13.5 0-24.4-15-24.4-33.6 0-18.5 11-33.6 24.4-33.6S0-18.6 0 0" style="fill:#fff;fill-rule:nonzero;stroke:#fff;stroke-width:29.8911;stroke-linecap:round;stroke-linejoin:round;stroke-dasharray:none;stroke-opacity:1" transform="matrix(.5431 0 0 .8243 692.8 565.7)"/></g><g style="clip-rule:evenodd;fill-rule:evenodd;stroke:#fff;stroke-width:29.8911;stroke-linecap:round;stroke-linejoin:round;stroke-miterlimit:1.41421;stroke-dasharray:none;stroke-opacity:1"><path d="M-33.6-289.8s74.6-33 95 40.6c0 0 21.3 86-61.3 90.8 0 0-105.3-20.3-33.7-131.4" style="fill-rule:nonzero;stroke:#fff;stroke-width:29.8911;stroke-linecap:round;stroke-linejoin:round;stroke-dasharray:none;stroke-opacity:1" transform="matrix(.5431 0 0 .8243 551.2 734)"/></g><g style="clip-rule:evenodd;fill-rule:evenodd;stroke:#fff;stroke-width:29.8911;stroke-linecap:round;stroke-linejoin:round;stroke-miterlimit:1.41421;stroke-dasharray:none;stroke-opacity:1"><path d="M0 0c0 19.1-11.3 34.6-25.2 34.6S-50.3 19.1-50.3 0s11.2-34.6 25.1-34.6S0-19.1 0 0" style="fill:#fff;fill-rule:nonzero;stroke:#fff;stroke-width:29.8911;stroke-linecap:round;stroke-linejoin:round;stroke-dasharray:none;stroke-opacity:1" transform="matrix(.5431 0 0 .8243 575 556.7)"/></g><g style="clip-rule:evenodd;fill-rule:evenodd;stroke:#fff;stroke-width:36.6042;stroke-linecap:round;stroke-linejoin:round;stroke-miterlimit:1.41421;stroke-dasharray:none;stroke-opacity:1"><g style="stroke:#fff;stroke-width:36.6042;stroke-linecap:round;stroke-linejoin:round;stroke-dasharray:none;stroke-opacity:1"><path d="m0 167.3-2.5-2.2L140 153.4C23.7 0-69.4 122.2-79.3 135.9v31.4z" style="fill-rule:nonzero;stroke:#fff;stroke-width:36.6042;stroke-linecap:round;stroke-linejoin:round;stroke-dasharray:none;stroke-opacity:1" transform="matrix(.4129 0 0 .723 503 674.3)"/></g><g style="stroke:#fff;stroke-width:36.6042;stroke-linecap:round;stroke-linejoin:round;stroke-dasharray:none;stroke-opacity:1"><path d="M0-25.1a1539 1539 0 0 1 144.9-12.7C22-199.8-77.7-53-77.7-53c-25-9-50.4-43.6-69.4-75.6l-76.3-22.6C-135.5-2-70 .1-70 .1 66.1 174.7 130.7 34.4 130.7 34.4 54.2 25.8 0-25 0-25" style="fill:#f74c00;fill-rule:nonzero;stroke:#fff;stroke-width:36.6042;stroke-linecap:round;stroke-linejoin:round;stroke-dasharray:none;stroke-opacity:1" transform="matrix(.4129 0 0 .723 499.4 821.8)"/></g></g><path d="M219.2 167.5s168.5 444.9 363.5 460.8C793.8 645.5 1052 199.8 1052 199.8S758 410.3 591.4 398c-145.5-10.8-372.2-230.4-372.2-230.4" style="clip-rule:evenodd;fill:#000;fill-rule:evenodd;stroke:#fff;stroke-width:36.8251;stroke-linecap:round;stroke-linejoin:round;stroke-miterlimit:1.41421;stroke-dasharray:none;stroke-opacity:1" transform="translate(288.8 421.1)scale(.5431)"/><path fill="#8f1f1d" d="M146 554.6c1.6 3.5 5.2 6.1 9.5 6.8l42 6.8q2.4 4.4 5 8.4L184 610.5a10 10 0 0 0 .8 10.7 13 13 0 0 0 10.7 5l42.8-.4 6.7 7.3-10.5 36.4c-1 3.7 0 7.7 3.1 10.4 3 2.8 7.4 4 11.7 3.2l41.8-7.9 8.1 6.1-2.2 37.6c-.2 3.8 1.9 7.4 5.4 9.6a14 14 0 0 0 12.2 1.1l39.2-14.8q4.6 2.4 9.3 4.6l6.2 37.2c.7 3.8 3.5 7 7.5 8.6a14 14 0 0 0 12-1l35.2-21.3 10.2 3 14.3 35.4a12 12 0 0 0 9.2 7c4.2.9 8.6-.3 11.6-3l29.7-27q5.2.8 10.6 1.2l22 32.4a13 13 0 0 0 10.5 5.4 13 13 0 0 0 10.8-5l23-31.6q5.4-.2 10.7-.7l28.7 28.1c2.9 2.8 7.3 4.2 11.5 3.5s7.9-3.2 9.4-6.8L652 750l10.4-2.6 34.3 22.6a14 14 0 0 0 12 1.5c4-1.4 7-4.5 7.8-8.3l7.5-36.9 9.6-4.3 38.6 16.3a14 14 0 0 0 12.2-.6c3.6-2 5.8-5.6 5.7-9.4l-.8-37.6 8.3-5.8 41.5 9.4c4.3 1 8.7 0 11.8-2.7s4.5-6.5 3.6-10.3l-9.2-36.8 6.9-7 42.8 2c4.3.3 8.4-1.5 11-4.6a10 10 0 0 0 1-10.7l-17-34.5 5.2-8.2 42.3-5.2c4.3-.5 8-3 9.7-6.5a10 10 0 0 0-1.2-10.7l-24.4-30.9c.2-.5-2-32.2-21.5-58.1l-.5-.2C855 407.2 716.7 359.6 552 356.5c-174-3.4-320.6 44.2-358.4 110.8A84 84 0 0 0 173 514l-25.5 30c-2.6 3-3.2 7-1.6 10.6" style="clip-rule:evenodd;fill-rule:evenodd;stroke:#fff;stroke-width:62.8439;stroke-linecap:round;stroke-linejoin:round;stroke-miterlimit:1.41421;stroke-dasharray:none;stroke-opacity:1" transform="matrix(-.3182 0 0 .3182 428.8 759)"/><path fill="#8f1f1d" d="M1006 420.5c-1.7-5-19.7-3.7-24.2-4.6l-65.7.6-5.2-11.7 42.5-65.8c2-4.9 12.4-11.7 10-16.2-2.6-4.5-18.7 1.5-23.2 1.7l-67.9 12-7-10 38-84.8c1-5.3 12.7-26.5 9.5-30.3s-18.3 9-22.7 10.2l-73.8 46.8q-4.2-4.3-8.5-8.4l20.9-73.4c.1-5.4 11.3-30.8 7.5-33.7s-16.6 8.4-20.8 10.6l-65.1 50.8-9.9-6.2 15.5-86.8c-.7-5.3 5.6-33 1.4-35-4.2-2.1-26 22-29.8 25.1l-51 65.3-10.7-3.9-4.9-98.5c-1.6-5-1.2-22.9-5.7-24-4.4-1-10.1 15-13.2 18.9l-44 87.7q-5.6-.8-11.1-1.3l-22.4-101c-2.4-4.5-4.9-19.6-9.4-19.6s-8 18-10.4 22.6l-27.1 98-11 1.3-38.5-89c-3-4-8.3-23.3-12.7-22.2-4.5 1-3.6 15.4-5.2 20.5l-11.5 106.6-10.8 3.9-34.9-44.8c-3.7-3.1-24.2-34-28.3-32s-1.2 34.4-2 39.7l1.3 68.5-9.8 6.2-63.7-59.3c-4.1-2.2-12.8-11.5-16.6-8.6-3.7 3-.6 16.5-.4 21.8l23.2 91.8q-4.5 4-8.6 8.4L218 225c-4.3-1.2-18-11.9-21.2-8-3.2 3.7 4.2 7.7 5.2 13l37 96.4-7 10.2L118 298c-4.5-.1-17-6.1-19.5-1.7-2.5 4.5 8 11 10 15.8l85 92.7-5.3 11.7-82.6-10c-4.4.9-16.2-1.5-18 3.4-1.7 5 9.7 11.4 12.4 15.8l61.7 66.5a203 203 0 0 0 23.6 81.3l.5.2c47.5 87 192.7 150.4 364.4 150.4C732 724.1 884 653.3 922 558.4c17.3-24.4 21.2-64 20.6-66.2l50.2-54.1c2.6-4.4 15-12.7 13.2-17.6" style="clip-rule:evenodd;fill-rule:evenodd;stroke:#fff;stroke-width:62.8439;stroke-linecap:round;stroke-linejoin:round;stroke-miterlimit:1.41421;stroke-dasharray:none;stroke-opacity:1" transform="matrix(-.3182 0 0 .3182 428.8 759)"/><path fill="#8f1f1d" d="M195.3 493s-94.7 13.6-116 18.3c-21.4 4.7-7.1 8.3 0 9.4 24.7 4 146.8 7.1 149.2 7.9S195.3 493 195.3 493m700.7 6.6s94.8 13.6 116.1 18.3 7.1 8.3 0 9.5c-24.7 3.9-146.9 7-149.2 7.8-2.4.8 33.1-35.6 33.1-35.6" style="clip-rule:evenodd;fill-rule:evenodd;stroke:#fff;stroke-width:62.8439;stroke-linecap:round;stroke-linejoin:round;stroke-miterlimit:1.41421;stroke-dasharray:none;stroke-opacity:1" transform="matrix(-.3182 0 0 .3182 428.8 759)"/><path d="M468 486s-41.1-45-82.2 0c0 0-32.3 60 0 90 0 0 52.8 42 82.2 0 0 0 35.2-33 0-90" style="clip-rule:evenodd;fill:#fff;fill-opacity:1;fill-rule:evenodd;stroke:#fff;stroke-width:40.767;stroke-linecap:round;stroke-linejoin:round;stroke-miterlimit:1.41421;stroke-dasharray:none;stroke-opacity:1" transform="matrix(-.416 0 0 .5786 523.2 555.5)"/><path fill="#fff" d="M384 470c0 10 14 18.2 31.4 18.2s31.4-8.1 31.4-18.1-14-18.1-31.4-18.1-31.4 8-31.4 18" style="clip-rule:evenodd;fill:#000;fill-opacity:1;fill-rule:evenodd;stroke:#fff;stroke-width:40.767;stroke-linecap:round;stroke-linejoin:round;stroke-miterlimit:1.41421;stroke-dasharray:none;stroke-opacity:1" transform="matrix(-.416 0 0 .5786 523.2 555.5)"/><g style="clip-rule:evenodd;fill-rule:evenodd;stroke:#fff;stroke-width:30.7449;stroke-linecap:round;stroke-linejoin:round;stroke-miterlimit:1.41421;stroke-dasharray:none;stroke-opacity:1"><path d="M667 469.5s-46.6-31.2-59.3 38.5c0 0-13.3 81.2 38.3 85.7 0 0 65.8-19.1 21-124.2" style="fill:#fff;fill-opacity:1;stroke:#fff;stroke-width:30.7449;stroke-linecap:round;stroke-linejoin:round;stroke-dasharray:none;stroke-opacity:1" transform="matrix(-.5641 0 0 .7501 628 438.2)"/><path fill="#fff" d="M611.2 482.8c0 7.5 9.4 13.7 21 13.7s20.8-6.2 20.8-13.7c0-7.6-9.3-13.7-20.9-13.7s-21 6.1-21 13.7" style="fill:#000;fill-opacity:1;stroke:#fff;stroke-width:30.7449;stroke-linecap:round;stroke-linejoin:round;stroke-dasharray:none;stroke-opacity:1" transform="matrix(-.5641 0 0 .7501 628 438.2)"/></g><path d="M1124.6 781.1c-60.5-47.5-38.6 177.3 17.3 230.1 63.9 60.4 198 63.5 263.7 5.1 49.2-43.7 81.3-218.6 19.3-196.5-132 47.3-190.4 47.7-300.3-38.7" style="fill:maroon;stroke:#fff;stroke-width:36.8251;stroke-linecap:round;stroke-linejoin:round;stroke-dasharray:none;stroke-opacity:1" transform="translate(-80.6 251.7)scale(.5431)"/><g style="stroke:#fff;stroke-width:188.026;stroke-linecap:round;stroke-linejoin:round;stroke-dasharray:none;stroke-opacity:1"><path fill="url(#a)" d="m-176-526.5 560 969.9H128L0 221.7l-128 221.7h-128l-64-110.8L-128 0l-176-304.8z" style="clip-rule:evenodd;fill:url(#c);fill-rule:evenodd;stroke:#fff;stroke-width:188.026;stroke-linecap:round;stroke-linejoin:round;stroke-miterlimit:1.41421;stroke-dasharray:none;stroke-opacity:1" transform="translate(582 843.2)scale(.1064)"/><path fill="url(#a)" d="M384 443.4H128L0 221.7l-128 221.7h-128l-64-110.8L-128 0l-176-304.8 128-221.7z" style="clip-rule:evenodd;fill:url(#d);fill-rule:evenodd;stroke:#fff;stroke-width:188.026;stroke-linecap:round;stroke-linejoin:round;stroke-miterlimit:1.41421;stroke-dasharray:none;stroke-opacity:1" transform="rotate(47.7 -765.3 1242.3)scale(.1064)"/><path fill="url(#b)" d="m-176-526.5 560 969.9H128L0 221.7l-128 221.7h-128l-64-110.8L-128 0l-176-304.8z" style="clip-rule:evenodd;fill:url(#e);fill-rule:evenodd;stroke:#fff;stroke-width:188.026;stroke-linecap:round;stroke-linejoin:round;stroke-miterlimit:1.41421;stroke-dasharray:none;stroke-opacity:1" transform="rotate(60 -405.2 866.7)scale(.1064)"/><path fill="url(#a)" d="m-176-526.5 560 969.9H128L0 221.7l-128 221.7h-128l-64-110.8L-128 0l-176-304.8z" style="clip-rule:evenodd;fill:url(#f);fill-rule:evenodd;stroke:#fff;stroke-width:188.026;stroke-linecap:round;stroke-linejoin:round;stroke-miterlimit:1.41421;stroke-dasharray:none;stroke-opacity:1" transform="rotate(120 81.6 530.7)scale(.1064)"/><path fill="url(#b)" d="m-176-526.5 560 969.9H128L0 221.7l-128 221.7h-128l-64-110.8L-128 0l-176-304.8z" style="clip-rule:evenodd;fill:url(#g);fill-rule:evenodd;stroke:#fff;stroke-width:188.026;stroke-linecap:round;stroke-linejoin:round;stroke-miterlimit:1.41421;stroke-dasharray:none;stroke-opacity:1" transform="rotate(151 136.5 534.7)scale(.1064)"/><path fill="url(#a)" d="m-176-526.5 560 969.9H128L0 221.7l-128 221.7h-128l-64-110.8L-128 0l-176-304.8z" style="clip-rule:evenodd;fill:url(#h);fill-rule:evenodd;stroke:#fff;stroke-width:188.026;stroke-linecap:round;stroke-linejoin:round;stroke-miterlimit:1.41421;stroke-dasharray:none;stroke-opacity:1" transform="rotate(240 568.4 194.7)scale(.1064)"/><path fill="url(#b)" d="m-176-526.5 560 969.9H128L0 221.7l-128 221.7h-128l-64-110.8L-128 0l-176-304.8z" style="clip-rule:evenodd;fill:url(#i);fill-rule:evenodd;stroke:#fff;stroke-width:188.026;stroke-linecap:round;stroke-linejoin:round;stroke-miterlimit:1.41421;stroke-dasharray:none;stroke-opacity:1" transform="rotate(-60 1055.3 -141.3)scale(.1064)"/><path fill="url(#b)" d="m-304-304.8 128-221.7 560 969.9H128L0 221.7l-128 221.7h-128l-64-110.8L-128 0z" style="clip-rule:evenodd;fill:url(#j);fill-rule:evenodd;stroke:#fff;stroke-width:188.026;stroke-linecap:round;stroke-linejoin:round;stroke-miterlimit:1.41421;stroke-dasharray:none;stroke-opacity:1" transform="rotate(-80.8 881.7 191.7)scale(.1064)"/></g></g><g style="stroke-width:.999801;stroke-dasharray:none"><g style="clip-rule:evenodd;fill-rule:evenodd;stroke-width:.999801;stroke-linejoin:round;stroke-miterlimit:1.41421;stroke-dasharray:none"><path d="M0-279.6c-121.2 0-231.4 14.6-313 38.4v202.9C-231.3-14.6-121.1 0 0 0c138.8 0 263-19 346.4-49.2v-181.2C263-260.4 138.8-279.6 0-279.6" style="fill:#a52b00;fill-rule:nonzero;stroke-width:.999801;stroke-dasharray:none" transform="translate(613.2 767)scale(.5431)"/></g><g style="clip-rule:evenodd;fill-rule:evenodd;stroke-width:.999801;stroke-linejoin:round;stroke-miterlimit:1.41421;stroke-dasharray:none"><path d="m0-53.3-14.2-29.5.1-3.3c0-33.4-34.7-64.2-93-88.8V2.6a244 244 0 0 0 65-38c-4.6 18.6-20.5 56.5-33.2 83-20.8 38.2-28.4 71.3-27.4 73 .6 1 7.7-10 18.2-27.8C-60 58-13.8-8.4-4.5-25.2 5.8-44.6 0-53.4 0-53.4" style="fill:#a52b00;fill-rule:nonzero;stroke-width:.999801;stroke-dasharray:none" transform="translate(869.2 733.7)scale(.5431)"/></g><g style="clip-rule:evenodd;fill-rule:evenodd;stroke-width:.999801;stroke-linejoin:round;stroke-miterlimit:1.41421;stroke-dasharray:none"><path d="M0-100q0 9.7 3.8 19l-8.5 15.2S-11.5-57 .5-38.3C11-22 64 42.5 92 76.3c12 17.3 20.2 28 20.9 26.9 1.1-1.6-7.5-34.1-31.4-71.2a678 678 0 0 1-32.4-65.7 377 377 0 0 0 86.1 38v-208.5C51.8-177.6 0-140.7 0-100" style="fill:#a52b00;fill-rule:nonzero;stroke-width:.999801;stroke-dasharray:none" transform="translate(369.7 742.3)scale(.5431)"/></g><g style="clip-rule:evenodd;fill-rule:evenodd;stroke-width:.999801;stroke-linejoin:round;stroke-miterlimit:1.41421;stroke-dasharray:none"><path d="m0 240.3-93.4-68.8-2.7-9.1 30.7-44.5a17 17 0 0 0 1.7-15.5c-2-5.2-6.5-8.8-11.7-9.7l-52-8.9-6.1-12.1 21.8-49.9a17 17 0 0 0-1.2-15.6 15 15 0 0 0-13.4-7.1L-179 1q-4-5.4-8.3-10.6l12.1-53.4c1.3-5.5-.3-11.2-4-15.1a15 15 0 0 0-14.5-4.3L-245-69.8l-10.1-8.7 1.8-54.9c.2-5.5-2.3-10.8-6.8-13.9s-10-3.6-15-1.3l-47.8 22.8-11.6-6.5-8.5-54.1a16 16 0 0 0-9.3-12.3 15 15 0 0 0-15 1.8l-42.6 32-12.7-4-18.4-51.3a15 15 0 0 0-25.7-5.3l-35.9 40.1q-6.4-.8-13-1.3l-27.7-46.7a15 15 0 0 0-13.1-7.7c-5.4 0-10.4 3-13.1 7.7l-27.8 46.7q-6.5.5-13 1.3l-36-40.2a15 15 0 0 0-25.6 5.4l-18.4 51.3-12.7 4-42.7-32c-4.3-3.3-10-4-14.9-1.8a16 16 0 0 0-9.3 12.3l-8.5 54-11.6 6.6-47.9-22.8a15 15 0 0 0-15 1.3c-4.4 3-7 8.4-6.8 14l1.9 54.8-10.1 8.7-51.3-12.6a15 15 0 0 0-14.4 4.3c-3.8 4-5.4 9.6-4.2 15l12.1 53.5L-934 1l-52.6-2a15 15 0 0 0-13.4 7.2c-3 4.6-3.4 10.5-1.2 15.6l21.8 49.9-6.2 12.1-52 8.9c-5.2.8-9.6 4.5-11.7 9.7s-1.4 11 1.7 15.5l30.7 44.5-.7 2.3-86.7 92.2s-13.3 10.4 6 35c17.1 21.5 104.8 107.2 151 152 19.6 22.8 33 37 34.4 35.7 2.2-2-9.4-43.4-47.9-92-29.7-43.6-68.2-110.7-59.2-118.5 0 0 10.3-13 31-22.4.7.6-.8-.6 0 0 0 0 435 200.7 838.7 3.4 46.1-8.3 74 16.4 74 16.4 9.7 5.6-15.2 74.6-35.7 120.3-28 51.8-32 92.3-29.6 93.7 1.4.9 11.6-14.5 26-39.1C-79.7 391.7-12.3 296.8 0 273.8c14-26.1 0-33.5 0-33.5" style="fill:#f74c00;fill-rule:nonzero;stroke-width:.999801;stroke-dasharray:none" transform="translate(914 574.2)scale(.5431)"/></g><g style="clip-rule:evenodd;fill-rule:evenodd;stroke-width:1.07589;stroke-linejoin:round;stroke-miterlimit:1.41421;stroke-dasharray:none"><g style="stroke-width:1.07589;stroke-dasharray:none"><path d="m0 172 2.5-2.3-137-10C-18 0 69.6 126.8 79.4 140.5V172z" style="fill-rule:nonzero;stroke-width:1.07589;stroke-dasharray:none" transform="matrix(.3742 0 0 .6807 738.3 677.6)"/></g><g style="stroke-width:1.07589;stroke-dasharray:none"><path d="M0-314s-15.6 62-112.5 127.2l-27.1 6.4s-87.9-160.3-212.4 20.3c0 0 38.8-22.6 142.8 5 0 0-47.8 73.2-144.2 71 0 0 92.4 110.8 233-49.3 0 0 148.5-57.5 160.6-180.6z" style="fill:#f74c00;fill-rule:nonzero;stroke-width:1.07589;stroke-dasharray:none" transform="matrix(.3742 0 0 .6807 820.2 904.8)"/></g></g><g style="clip-rule:evenodd;fill-rule:evenodd;stroke-width:.811543;stroke-linejoin:round;stroke-miterlimit:1.41421;stroke-dasharray:none"><path d="M0-92s43.5-47.7 87 0c0 0 34.1 63.4 0 95.2 0 0-56 44.4-87 0 0 0-37.3-35 0-95.3" style="fill-rule:nonzero;stroke-width:.811543;stroke-dasharray:none" transform="matrix(.5431 0 0 .8243 670 598.5)"/></g><g style="clip-rule:evenodd;fill-rule:evenodd;stroke-width:.811543;stroke-linejoin:round;stroke-miterlimit:1.41421;stroke-dasharray:none"><path d="M0 0c0 18.5-11 33.6-24.4 33.6-13.5 0-24.4-15-24.4-33.6 0-18.5 11-33.6 24.4-33.6S0-18.6 0 0" style="fill:#fff;fill-rule:nonzero;stroke-width:.811543;stroke-dasharray:none" transform="matrix(.5431 0 0 .8243 692.8 565.7)"/></g><g style="clip-rule:evenodd;fill-rule:evenodd;stroke-width:.811543;stroke-linejoin:round;stroke-miterlimit:1.41421;stroke-dasharray:none"><path d="M-33.6-289.8s74.6-33 95 40.6c0 0 21.3 86-61.3 90.8 0 0-105.3-20.3-33.7-131.4" style="fill-rule:nonzero;stroke-width:.811543;stroke-dasharray:none" transform="matrix(.5431 0 0 .8243 551.2 734)"/></g><g style="clip-rule:evenodd;fill-rule:evenodd;stroke-width:.811543;stroke-linejoin:round;stroke-miterlimit:1.41421;stroke-dasharray:none"><path d="M0 0c0 19.1-11.3 34.6-25.2 34.6S-50.3 19.1-50.3 0s11.2-34.6 25.1-34.6S0-19.1 0 0" style="fill:#fff;fill-rule:nonzero;stroke-width:.811543;stroke-dasharray:none" transform="matrix(.5431 0 0 .8243 575 556.7)"/></g><g style="clip-rule:evenodd;fill-rule:evenodd;stroke-width:.993805;stroke-linejoin:round;stroke-miterlimit:1.41421;stroke-dasharray:none"><g style="stroke-width:.993805;stroke-dasharray:none"><path d="m0 167.3-2.5-2.2L140 153.4C23.7 0-69.4 122.2-79.3 135.9v31.4z" style="fill-rule:nonzero;stroke-width:.993805;stroke-dasharray:none" transform="matrix(.4129 0 0 .723 503 674.3)"/></g><g style="stroke-width:.993805;stroke-dasharray:none"><path d="M0-25.1a1539 1539 0 0 1 144.9-12.7C22-199.8-77.7-53-77.7-53c-25-9-50.4-43.6-69.4-75.6l-76.3-22.6C-135.5-2-70 .1-70 .1 66.1 174.7 130.7 34.4 130.7 34.4 54.2 25.8 0-25 0-25" style="fill:#f74c00;fill-rule:nonzero;stroke-width:.993805;stroke-dasharray:none" transform="matrix(.4129 0 0 .723 499.4 821.8)"/></g></g><path d="M219.2 167.5s168.5 444.9 363.5 460.8C793.8 645.5 1052 199.8 1052 199.8S758 410.3 591.4 398c-145.5-10.8-372.2-230.4-372.2-230.4" style="clip-rule:evenodd;fill:#000;fill-rule:evenodd;stroke-width:.999801;stroke-linejoin:round;stroke-miterlimit:1.41421;stroke-dasharray:none" transform="translate(288.8 421.1)scale(.5431)"/><path fill="#8f1f1d" d="M146 554.6c1.6 3.5 5.2 6.1 9.5 6.8l42 6.8q2.4 4.4 5 8.4L184 610.5a10 10 0 0 0 .8 10.7 13 13 0 0 0 10.7 5l42.8-.4 6.7 7.3-10.5 36.4c-1 3.7 0 7.7 3.1 10.4 3 2.8 7.4 4 11.7 3.2l41.8-7.9 8.1 6.1-2.2 37.6c-.2 3.8 1.9 7.4 5.4 9.6a14 14 0 0 0 12.2 1.1l39.2-14.8q4.6 2.4 9.3 4.6l6.2 37.2c.7 3.8 3.5 7 7.5 8.6a14 14 0 0 0 12-1l35.2-21.3 10.2 3 14.3 35.4a12 12 0 0 0 9.2 7c4.2.9 8.6-.3 11.6-3l29.7-27q5.2.8 10.6 1.2l22 32.4a13 13 0 0 0 10.5 5.4 13 13 0 0 0 10.8-5l23-31.6q5.4-.2 10.7-.7l28.7 28.1c2.9 2.8 7.3 4.2 11.5 3.5s7.9-3.2 9.4-6.8L652 750l10.4-2.6 34.3 22.6a14 14 0 0 0 12 1.5c4-1.4 7-4.5 7.8-8.3l7.5-36.9 9.6-4.3 38.6 16.3a14 14 0 0 0 12.2-.6c3.6-2 5.8-5.6 5.7-9.4l-.8-37.6 8.3-5.8 41.5 9.4c4.3 1 8.7 0 11.8-2.7s4.5-6.5 3.6-10.3l-9.2-36.8 6.9-7 42.8 2c4.3.3 8.4-1.5 11-4.6a10 10 0 0 0 1-10.7l-17-34.5 5.2-8.2 42.3-5.2c4.3-.5 8-3 9.7-6.5a10 10 0 0 0-1.2-10.7l-24.4-30.9c.2-.5-2-32.2-21.5-58.1l-.5-.2C855 407.2 716.7 359.6 552 356.5c-174-3.4-320.6 44.2-358.4 110.8A84 84 0 0 0 173 514l-25.5 30c-2.6 3-3.2 7-1.6 10.6" style="clip-rule:evenodd;fill-rule:evenodd;stroke-width:1.70621;stroke-linejoin:round;stroke-miterlimit:1.41421;stroke-dasharray:none" transform="matrix(-.3182 0 0 .3182 428.8 759)"/><path fill="#8f1f1d" d="M1006 420.5c-1.7-5-19.7-3.7-24.2-4.6l-65.7.6-5.2-11.7 42.5-65.8c2-4.9 12.4-11.7 10-16.2-2.6-4.5-18.7 1.5-23.2 1.7l-67.9 12-7-10 38-84.8c1-5.3 12.7-26.5 9.5-30.3s-18.3 9-22.7 10.2l-73.8 46.8q-4.2-4.3-8.5-8.4l20.9-73.4c.1-5.4 11.3-30.8 7.5-33.7s-16.6 8.4-20.8 10.6l-65.1 50.8-9.9-6.2 15.5-86.8c-.7-5.3 5.6-33 1.4-35-4.2-2.1-26 22-29.8 25.1l-51 65.3-10.7-3.9-4.9-98.5c-1.6-5-1.2-22.9-5.7-24-4.4-1-10.1 15-13.2 18.9l-44 87.7q-5.6-.8-11.1-1.3l-22.4-101c-2.4-4.5-4.9-19.6-9.4-19.6s-8 18-10.4 22.6l-27.1 98-11 1.3-38.5-89c-3-4-8.3-23.3-12.7-22.2-4.5 1-3.6 15.4-5.2 20.5l-11.5 106.6-10.8 3.9-34.9-44.8c-3.7-3.1-24.2-34-28.3-32s-1.2 34.4-2 39.7l1.3 68.5-9.8 6.2-63.7-59.3c-4.1-2.2-12.8-11.5-16.6-8.6-3.7 3-.6 16.5-.4 21.8l23.2 91.8q-4.5 4-8.6 8.4L218 225c-4.3-1.2-18-11.9-21.2-8-3.2 3.7 4.2 7.7 5.2 13l37 96.4-7 10.2L118 298c-4.5-.1-17-6.1-19.5-1.7-2.5 4.5 8 11 10 15.8l85 92.7-5.3 11.7-82.6-10c-4.4.9-16.2-1.5-18 3.4-1.7 5 9.7 11.4 12.4 15.8l61.7 66.5a203 203 0 0 0 23.6 81.3l.5.2c47.5 87 192.7 150.4 364.4 150.4C732 724.1 884 653.3 922 558.4c17.3-24.4 21.2-64 20.6-66.2l50.2-54.1c2.6-4.4 15-12.7 13.2-17.6" style="clip-rule:evenodd;fill-rule:evenodd;stroke-width:1.70621;stroke-linejoin:round;stroke-miterlimit:1.41421;stroke-dasharray:none" transform="matrix(-.3182 0 0 .3182 428.8 759)"/><path fill="#8f1f1d" d="M195.3 493s-94.7 13.6-116 18.3c-21.4 4.7-7.1 8.3 0 9.4 24.7 4 146.8 7.1 149.2 7.9S195.3 493 195.3 493m700.7 6.6s94.8 13.6 116.1 18.3 7.1 8.3 0 9.5c-24.7 3.9-146.9 7-149.2 7.8-2.4.8 33.1-35.6 33.1-35.6" style="clip-rule:evenodd;fill-rule:evenodd;stroke-width:1.70621;stroke-linejoin:round;stroke-miterlimit:1.41421;stroke-dasharray:none" transform="matrix(-.3182 0 0 .3182 428.8 759)"/><path d="M468 486s-41.1-45-82.2 0c0 0-32.3 60 0 90 0 0 52.8 42 82.2 0 0 0 35.2-33 0-90" style="clip-rule:evenodd;fill:#fff;fill-opacity:1;fill-rule:evenodd;stroke-width:1.10682;stroke-linejoin:round;stroke-miterlimit:1.41421;stroke-dasharray:none" transform="matrix(-.416 0 0 .5786 523.2 555.5)"/><path fill="#fff" d="M384 470c0 10 14 18.2 31.4 18.2s31.4-8.1 31.4-18.1-14-18.1-31.4-18.1-31.4 8-31.4 18" style="clip-rule:evenodd;fill:#000;fill-opacity:1;fill-rule:evenodd;stroke-width:1.10682;stroke-linejoin:round;stroke-miterlimit:1.41421;stroke-dasharray:none" transform="matrix(-.416 0 0 .5786 523.2 555.5)"/><g style="clip-rule:evenodd;fill-rule:evenodd;stroke-width:.834723;stroke-linejoin:round;stroke-miterlimit:1.41421;stroke-dasharray:none"><path d="M667 469.5s-46.6-31.2-59.3 38.5c0 0-13.3 81.2 38.3 85.7 0 0 65.8-19.1 21-124.2" style="fill:#fff;fill-opacity:1;stroke-width:.834723;stroke-dasharray:none" transform="matrix(-.5641 0 0 .7501 628 438.2)"/><path fill="#fff" d="M611.2 482.8c0 7.5 9.4 13.7 21 13.7s20.8-6.2 20.8-13.7c0-7.6-9.3-13.7-20.9-13.7s-21 6.1-21 13.7" style="fill:#000;fill-opacity:1;stroke-width:.834723;stroke-dasharray:none" transform="matrix(-.5641 0 0 .7501 628 438.2)"/></g><path d="M1124.6 781.1c-60.5-47.5-38.6 177.3 17.3 230.1 63.9 60.4 198 63.5 263.7 5.1 49.2-43.7 81.3-218.6 19.3-196.5-132 47.3-190.4 47.7-300.3-38.7" style="fill:maroon;stroke-width:.999801;stroke-dasharray:none" transform="translate(-80.6 251.7)scale(.5431)"/><g style="stroke-width:5.1049;stroke-dasharray:none"><path fill="url(#a)" d="M128 443.4 0 221.7l-128 221.7h-128l-64-110.8L-128 0l-176-304.8 128-221.7 560 969.9z" style="clip-rule:evenodd;fill:url(#k);fill-rule:evenodd;stroke-width:5.1049;stroke-linejoin:round;stroke-miterlimit:1.41421;stroke-dasharray:none" transform="translate(582 843.2)scale(.1064)"/><path fill="url(#a)" d="m0 221.7-128 221.7h-128l-64-110.8L-128 0l-176-304.8 128-221.7 560 969.9H128z" style="clip-rule:evenodd;fill:url(#l);fill-rule:evenodd;stroke-width:5.1049;stroke-linejoin:round;stroke-miterlimit:1.41421;stroke-dasharray:none" transform="rotate(47.7 -765.3 1242.3)scale(.1064)"/><path fill="url(#b)" d="M128 443.4 0 221.7l-128 221.7h-128l-64-110.8L-128 0l-176-304.8 128-221.7 560 969.9z" style="clip-rule:evenodd;fill:url(#m);fill-rule:evenodd;stroke-width:5.1049;stroke-linejoin:round;stroke-miterlimit:1.41421;stroke-dasharray:none" transform="rotate(60 -405.2 866.7)scale(.1064)"/><path fill="url(#a)" d="M128 443.4 0 221.7l-128 221.7h-128l-64-110.8L-128 0l-176-304.8 128-221.7 560 969.9z" style="clip-rule:evenodd;fill:url(#n);fill-rule:evenodd;stroke-width:5.1049;stroke-linejoin:round;stroke-miterlimit:1.41421;stroke-dasharray:none" transform="rotate(120 81.6 530.7)scale(.1064)"/><path fill="url(#b)" d="M128 443.4 0 221.7l-128 221.7h-128l-64-110.8L-128 0l-176-304.8 128-221.7 560 969.9z" style="clip-rule:evenodd;fill:url(#o);fill-rule:evenodd;stroke-width:5.1049;stroke-linejoin:round;stroke-miterlimit:1.41421;stroke-dasharray:none" transform="rotate(151 136.5 534.7)scale(.1064)"/><path fill="url(#a)" d="M128 443.4 0 221.7l-128 221.7h-128l-64-110.8L-128 0l-176-304.8 128-221.7 560 969.9z" style="clip-rule:evenodd;fill:url(#p);fill-rule:evenodd;stroke-width:5.1049;stroke-linejoin:round;stroke-miterlimit:1.41421;stroke-dasharray:none" transform="rotate(240 568.4 194.7)scale(.1064)"/><path fill="url(#b)" d="M128 443.4 0 221.7l-128 221.7h-128l-64-110.8L-128 0l-176-304.8 128-221.7 560 969.9z" style="clip-rule:evenodd;fill:url(#q);fill-rule:evenodd;stroke-width:5.1049;stroke-linejoin:round;stroke-miterlimit:1.41421;stroke-dasharray:none" transform="rotate(-60 1055.3 -141.3)scale(.1064)"/><path fill="url(#b)" d="M384 443.4H128L0 221.7l-128 221.7h-128l-64-110.8L-128 0l-176-304.8 128-221.7z" style="clip-rule:evenodd;fill:url(#r);fill-rule:evenodd;stroke-width:5.1049;stroke-linejoin:round;stroke-miterlimit:1.41421;stroke-dasharray:none" transform="rotate(-80.8 881.7 191.7)scale(.1064)"/></g></g><g style="display:inline"><path d="M1081.3 797.8q-28.1 0-42.7-17.1t-14.7-46.3q0-30.7 15.5-47.1a56 56 0 0 1 42.3-16.3q24 0 37.6 12.7a54 54 0 0 1 16.3 34.6h-32.2q-1.5-12-7-18.1a19 19 0 0 0-14.5-6.3q-11.7 0-18 10.5-6.2 10.5-6.2 30t6 30q6.3 10.5 18 10.4 9 0 14.7-6.2a33 33 0 0 0 7-18.1h32.2a55 55 0 0 1-16.7 34.4 53 53 0 0 1-37.6 12.9zm116.5-.6a45 45 0 0 1-27.8-8 48 48 0 0 1-16-22.6 94 94 0 0 1-5.3-32.4 94 94 0 0 1 5.2-32.8q5.4-14 16.3-22a46 46 0 0 1 27.4-7.8q12.7 0 20.7 5 8.3 4.8 12.5 13.1h4.8V674h30.2v120.8h-30.2V779h-4.8q-4.3 7.6-12.3 12.8a37 37 0 0 1-20.7 5.3zm8.4-23q12.3 0 19.6-10.6 7.5-11 7.4-29.2 0-18.5-7.4-29.2a23 23 0 0 0-19.6-10.7q-11 0-17.5 10a57 57 0 0 0-6.2 29.9q0 20 6.2 30a20 20 0 0 0 17.5 9.8zm83.6 20.6V674h29.8v22.1h4.8a34 34 0 0 1 4.4-11.2q3.4-5.5 10.3-8.7a41 41 0 0 1 18.3-3.4h6.5v29.4h-8.9q-17 0-25 8.6-7.5 8.7-7.6 26v58zm146.1 43.2a74 74 0 0 1-27.4-4.2 41 41 0 0 1-15.9-10.3 39 39 0 0 1-7.6-12.6q-2.3-6.4-2.6-11.3h31.8q1 5.8 5.6 10.7t15.7 4.8q12.5 0 18.7-7.5a31 31 0 0 0 6.3-20.7v-14.3h-4.9a25 25 0 0 1-10.4 13.7 37 37 0 0 1-20.2 4.8 43 43 0 0 1-36-16.3 72 72 0 0 1-12.3-43.8q0-17.5 5.5-31 5.4-13.8 16.3-21.4a46 46 0 0 1 27.1-7.6q12.6 0 20 4.8a28 28 0 0 1 11.2 12.7h4.9V674h30.2v111.7q0 25-13.7 38.6-13.7 13.8-42.3 13.7zm-2-69.8q11.9 0 18.5-10a48 48 0 0 0 6.9-27.2q0-17.1-6.9-27a21 21 0 0 0-18.5-10q-11.1 0-17.7 9.2a49 49 0 0 0-6.5 27.8q0 19 6.5 28.1 6.6 9 17.7 9zm139.3 29.6q-30 0-45-17.1-14.6-17.4-14.6-46.3 0-29 14.7-46.1 15-17.3 44.9-17.3 30 0 44.7 17.3 14.8 17.1 14.8 46 0 29-14.8 46.4-14.7 17-44.7 17zm0-21.8q13.2 0 19.5-10.4 6.2-10.5 6.2-31.4a61 61 0 0 0-6.2-31q-6.3-10.5-19.5-10.5-13.3 0-19.6 10.5a61 61 0 0 0-6.2 31q0 21 6.2 31.4t19.6 10.4zm82-30.3V719h53.2v26.6zm128.8 52q-20 0-32.2-6.2a44 44 0 0 1-23.7-35.4h31a24 24 0 0 0 4.2 9.7q3.4 4.2 8.8 6.6 5.7 2.4 13.5 2.4 9.7 0 14-3.2 4-3.5 4.1-8.6a10 10 0 0 0-4-8 36 36 0 0 0-12.7-6.3l-14.4-4.9q-10.5-3.6-19.4-7.8-8.8-4.5-14.3-11.3a28 28 0 0 1-5.2-17.7q0-16 12.3-26t34.8-10q16.3 0 26.6 5 10.5 5.1 15.7 13.5a40 40 0 0 1 6 18.3h-29.8a16 16 0 0 0-6-11q-5.1-4-13.7-4-7.8 0-11.9 3a10 10 0 0 0-3.8 8.2q0 5.3 4.2 8.6a41 41 0 0 0 12.9 6.3l14.5 4.6q10.5 3.3 19.1 7.7a37 37 0 0 1 14.1 11.2 29 29 0 0 1 5.2 18 33 33 0 0 1-12.8 27.1q-12.7 10.3-37 10.3zm121.8 0q-28 0-42.7-17-14.7-17.2-14.7-46.3 0-30.7 15.5-47.1a56 56 0 0 1 42.3-16.3q24 0 37.6 12.7a54 54 0 0 1 16.3 34.6H1928q-1.3-12-7-18.1a19 19 0 0 0-14.5-6.3q-11.6 0-18 10.5-6 10.5-6.1 30t6 30 17.9 10.4q9 0 14.7-6.2a33 33 0 0 0 7-18.1h32.2a55 55 0 0 1-16.7 34.4 53 53 0 0 1-37.6 12.9zm71.2-3v-161h32.6v54.8h4.9q4-7.7 11-12.5 7.3-5 20-5 20 0 30.2 12.7 10 12.6 10 34.4v76.7h-32.6v-71.3q0-12.5-4.4-19.1-4.5-6.9-14.5-6.9-11.7 0-18.1 9.3-6.5 9-6.5 22.8v65.2zm130.9 0V674h30.2v18.1h4.8q3.6-9 11-15 7.8-6.1 22.4-6.1 20.1 0 30.2 12.7t10 34.4v76.7H2184v-71.3q0-12.5-4.5-19.1-4.4-6.9-14.4-6.9-11.7 0-18.2 9.3-6.4 9-6.4 22.8v65.2zm185.4 4q-28.5 0-43.7-17-15-17.2-14.9-46.5 0-19.7 6.6-33.8a50 50 0 0 1 19.8-21.8 62 62 0 0 1 31.8-7.6q27 0 41.2 16.3 14.5 16.3 14.5 47.9v6.8h-82.1a43 43 0 0 0 7.9 24.2q7 8.6 18.9 8.6 9.5 0 15-5.6 6-5.7 7.7-13h31a52 52 0 0 1-8 20.4 46 46 0 0 1-17.5 15.3q-11.4 6-28.2 5.9zm-26.8-76.2h50.3a36 36 0 0 0-6.8-21.1q-6-7.7-17.3-7.7-11.1 0-18 7.3a37 37 0 0 0-8.2 21.5zm157 76.3q-28.5 0-43.7-17.1-15-17.2-14.9-46.5 0-19.7 6.7-33.8a50 50 0 0 1 19.7-21.8 62 62 0 0 1 31.8-7.6q27 0 41.2 16.3 14.5 16.3 14.5 47.9v6.8h-82a43 43 0 0 0 7.8 24.2q7 8.6 18.9 8.6 9.5 0 15-5.6 6-5.7 7.7-13h31a52 52 0 0 1-8 20.4 46 46 0 0 1-17.5 15.3q-11.4 6-28.2 5.9zm-26.8-76.3h50.3a36 36 0 0 0-6.8-21.1q-6-7.7-17.3-7.7-11.1 0-18 7.3a37 37 0 0 0-8.2 21.5z" aria-label="cargo-schnee" style="font-weight:700;font-size:241.52px;font-family:&quot;Familjen Grotesk&quot;;-inkscape-font-specification:&quot;Familjen Grotesk Bold&quot;;display:inline;fill:#0d1117;stroke:#fff;stroke-width:20.027;stroke-linejoin:round;stroke-dasharray:none;stroke-opacity:1;paint-order:stroke fill markers"/></g></svg>